<svg width="1156" height="212" viewBox="0 0 1156 212" fill="none" xmlns="http://www.w3.org/2000/svg">
<g clip-path="url(#clip0_2045_547)">
<rect width="1156" height="212" rx="8" fill="#F0F0F0"/>
<path d="M298.02 124.31C298.02 126.25 296.45 127.82 294.51 127.82C292.57 127.82 291 126.25 291 124.31C291 122.37 292.57 120.8 294.51 120.8C296.45 120.8 298.02 122.37 298.02 124.31Z" fill="#C6C6C6" fill-opacity="0.2"/>
<path d="M328.21 124.31C328.21 126.25 326.64 127.82 324.7 127.82C322.76 127.82 321.19 126.25 321.19 124.31C321.19 122.37 322.76 120.8 324.7 120.8C326.64 120.8 328.21 122.37 328.21 124.31Z" fill="#C6C6C6" fill-opacity="0.2"/>
<path d="M358.39 124.31C358.39 126.25 356.82 127.82 354.88 127.82C352.94 127.82 351.37 126.25 351.37 124.31C351.37 122.37 352.94 120.8 354.88 120.8C356.82 120.8 358.39 122.37 358.39 124.31Z" fill="#C6C6C6" fill-opacity="0.2"/>
<path d="M388.58 124.31C388.58 126.25 387.01 127.82 385.07 127.82C383.13 127.82 381.56 126.25 381.56 124.31C381.56 122.37 383.13 120.8 385.07 120.8C387.01 120.8 388.58 122.37 388.58 124.31Z" fill="#C6C6C6" fill-opacity="0.2"/>
<path d="M298.02 152.94C298.02 154.88 296.45 156.45 294.51 156.45C292.57 156.45 291 154.88 291 152.94C291 151 292.57 149.43 294.51 149.43C296.45 149.43 298.02 151 298.02 152.94Z" fill="#C6C6C6" fill-opacity="0.2"/>
<path d="M328.21 152.94C328.21 154.88 326.64 156.45 324.7 156.45C322.76 156.45 321.19 154.88 321.19 152.94C321.19 151 322.76 149.43 324.7 149.43C326.64 149.43 328.21 151 328.21 152.94Z" fill="#C6C6C6" fill-opacity="0.2"/>
<path d="M358.39 152.94C358.39 154.88 356.82 156.45 354.88 156.45C352.94 156.45 351.37 154.88 351.37 152.94C351.37 151 352.94 149.43 354.88 149.43C356.82 149.43 358.39 151 358.39 152.94Z" fill="#C6C6C6" fill-opacity="0.2"/>
<path d="M388.58 152.94C388.58 154.88 387.01 156.45 385.07 156.45C383.13 156.45 381.56 154.88 381.56 152.94C381.56 151 383.13 149.43 385.07 149.43C387.01 149.43 388.58 151 388.58 152.94Z" fill="#C6C6C6" fill-opacity="0.2"/>
<path d="M298.02 181.56C298.02 183.5 296.45 185.07 294.51 185.07C292.57 185.07 291 183.5 291 181.56C291 179.62 292.57 178.05 294.51 178.05C296.45 178.05 298.02 179.62 298.02 181.56Z" fill="#C6C6C6" fill-opacity="0.2"/>
<path d="M328.21 181.56C328.21 183.5 326.64 185.07 324.7 185.07C322.76 185.07 321.19 183.5 321.19 181.56C321.19 179.62 322.76 178.05 324.7 178.05C326.64 178.05 328.21 179.62 328.21 181.56Z" fill="#C6C6C6" fill-opacity="0.2"/>
<path d="M358.39 181.56C358.39 183.5 356.82 185.07 354.88 185.07C352.94 185.07 351.37 183.5 351.37 181.56C351.37 179.62 352.94 178.05 354.88 178.05C356.82 178.05 358.39 179.62 358.39 181.56Z" fill="#C6C6C6" fill-opacity="0.2"/>
<path d="M388.58 181.56C388.58 183.5 387.01 185.07 385.07 185.07C383.13 185.07 381.56 183.5 381.56 181.56C381.56 179.62 383.13 178.05 385.07 178.05C387.01 178.05 388.58 179.62 388.58 181.56Z" fill="#C6C6C6" fill-opacity="0.2"/>
<path d="M298.02 210.19C298.02 212.13 296.45 213.7 294.51 213.7C292.57 213.7 291 212.13 291 210.19C291 208.25 292.57 206.68 294.51 206.68C296.45 206.68 298.02 208.25 298.02 210.19Z" fill="#C6C6C6" fill-opacity="0.2"/>
<path d="M328.21 210.19C328.21 212.13 326.64 213.7 324.7 213.7C322.76 213.7 321.19 212.13 321.19 210.19C321.19 208.25 322.76 206.68 324.7 206.68C326.64 206.68 328.21 208.25 328.21 210.19Z" fill="#C6C6C6" fill-opacity="0.2"/>
<path d="M358.39 210.19C358.39 212.13 356.82 213.7 354.88 213.7C352.94 213.7 351.37 212.13 351.37 210.19C351.37 208.25 352.94 206.68 354.88 206.68C356.82 206.68 358.39 208.25 358.39 210.19Z" fill="#C6C6C6" fill-opacity="0.2"/>
<path d="M388.58 210.19C388.58 212.13 387.01 213.7 385.07 213.7C383.13 213.7 381.56 212.13 381.56 210.19C381.56 208.25 383.13 206.68 385.07 206.68C387.01 206.68 388.58 208.25 388.58 210.19Z" fill="#C6C6C6" fill-opacity="0.2"/>
<path d="M298.02 41.51C298.02 43.45 296.45 45.02 294.51 45.02C292.57 45.02 291 43.45 291 41.51C291 39.57 292.57 38 294.51 38C296.45 38 298.02 39.57 298.02 41.51Z" fill="#C6C6C6" fill-opacity="0.2"/>
<path d="M328.21 41.51C328.21 43.45 326.64 45.02 324.7 45.02C322.76 45.02 321.19 43.45 321.19 41.51C321.19 39.57 322.76 38 324.7 38C326.64 38 328.21 39.57 328.21 41.51Z" fill="#C6C6C6" fill-opacity="0.2"/>
<path d="M358.39 41.51C358.39 43.45 356.82 45.02 354.88 45.02C352.94 45.02 351.37 43.45 351.37 41.51C351.37 39.57 352.94 38 354.88 38C356.82 38 358.39 39.57 358.39 41.51Z" fill="#C6C6C6" fill-opacity="0.2"/>
<path d="M388.58 41.51C388.58 43.45 387.01 45.02 385.07 45.02C383.13 45.02 381.56 43.45 381.56 41.51C381.56 39.57 383.13 38 385.07 38C387.01 38 388.58 39.57 388.58 41.51Z" fill="#C6C6C6" fill-opacity="0.2"/>
<path d="M298.02 70.1401C298.02 72.0801 296.45 73.6501 294.51 73.6501C292.57 73.6501 291 72.0801 291 70.1401C291 68.2001 292.57 66.6301 294.51 66.6301C296.45 66.6301 298.02 68.2001 298.02 70.1401Z" fill="#C6C6C6" fill-opacity="0.2"/>
<path d="M328.21 70.1401C328.21 72.0801 326.64 73.6501 324.7 73.6501C322.76 73.6501 321.19 72.0801 321.19 70.1401C321.19 68.2001 322.76 66.6301 324.7 66.6301C326.64 66.6301 328.21 68.2001 328.21 70.1401Z" fill="#C6C6C6" fill-opacity="0.2"/>
<path d="M358.39 70.1401C358.39 72.0801 356.82 73.6501 354.88 73.6501C352.94 73.6501 351.37 72.0801 351.37 70.1401C351.37 68.2001 352.94 66.6301 354.88 66.6301C356.82 66.6301 358.39 68.2001 358.39 70.1401Z" fill="#C6C6C6" fill-opacity="0.2"/>
<path d="M388.58 70.1401C388.58 72.0801 387.01 73.6501 385.07 73.6501C383.13 73.6501 381.56 72.0801 381.56 70.1401C381.56 68.2001 383.13 66.6301 385.07 66.6301C387.01 66.6301 388.58 68.2001 388.58 70.1401Z" fill="#C6C6C6" fill-opacity="0.2"/>
<path d="M298.02 98.76C298.02 100.7 296.45 102.27 294.51 102.27C292.57 102.27 291 100.7 291 98.76C291 96.82 292.57 95.25 294.51 95.25C296.45 95.25 298.02 96.82 298.02 98.76Z" fill="#C6C6C6" fill-opacity="0.2"/>
<path d="M328.21 98.76C328.21 100.7 326.64 102.27 324.7 102.27C322.76 102.27 321.19 100.7 321.19 98.76C321.19 96.82 322.76 95.25 324.7 95.25C326.64 95.25 328.21 96.82 328.21 98.76Z" fill="#C6C6C6" fill-opacity="0.2"/>
<path d="M358.39 98.76C358.39 100.7 356.82 102.27 354.88 102.27C352.94 102.27 351.37 100.7 351.37 98.76C351.37 96.82 352.94 95.25 354.88 95.25C356.82 95.25 358.39 96.82 358.39 98.76Z" fill="#C6C6C6" fill-opacity="0.2"/>
<path d="M388.58 98.76C388.58 100.7 387.01 102.27 385.07 102.27C383.13 102.27 381.56 100.7 381.56 98.76C381.56 96.82 383.13 95.25 385.07 95.25C387.01 95.25 388.58 96.82 388.58 98.76Z" fill="#C6C6C6" fill-opacity="0.2"/>
<g style="mix-blend-mode:multiply">
<path d="M437.449 254.428C458.83 233.047 458.83 198.381 437.449 177C416.067 155.619 381.402 155.619 360.02 177C338.639 198.381 338.639 233.047 360.02 254.428C381.402 275.809 416.067 275.809 437.449 254.428Z" fill="#C6C6C6" fill-opacity="0.2"/>
</g>
<path d="M1070.2 288.807C1115.22 288.807 1151.72 252.309 1151.72 207.287C1151.72 162.264 1115.22 125.767 1070.2 125.767C1025.18 125.767 988.68 162.264 988.68 207.287C988.68 252.309 1025.18 288.807 1070.2 288.807Z" stroke="#C6C6C6" stroke-opacity="0.2" stroke-width="2" stroke-miterlimit="10"/>
<path d="M1112 308.646C1168.02 285.568 1194.72 221.448 1171.65 165.43C1148.57 109.412 1084.45 82.7081 1028.43 105.786C972.412 128.863 945.708 192.983 968.786 249.001C991.863 305.02 1055.98 331.723 1112 308.646Z" stroke="#C6C6C6" stroke-opacity="0.2" stroke-width="2" stroke-miterlimit="10"/>
<path d="M1070.2 302.887C1017.48 302.887 974.59 259.997 974.59 207.277C974.59 154.557 1017.48 111.667 1070.2 111.667C1122.92 111.667 1165.81 154.557 1165.81 207.277C1165.81 259.997 1122.92 302.887 1070.2 302.887Z" stroke="#C6C6C6" stroke-opacity="0.2" stroke-width="2" stroke-miterlimit="10"/>
<path d="M1070.2 288.807C1115.22 288.807 1151.72 252.309 1151.72 207.287C1151.72 162.264 1115.22 125.767 1070.2 125.767C1025.18 125.767 988.68 162.264 988.68 207.287C988.68 252.309 1025.18 288.807 1070.2 288.807Z" stroke="#C6C6C6" stroke-opacity="0.2" stroke-width="2" stroke-miterlimit="10"/>
<path d="M1070.2 273.687C1106.87 273.687 1136.6 243.959 1136.6 207.287C1136.6 170.615 1106.87 140.887 1070.2 140.887C1033.53 140.887 1003.8 170.615 1003.8 207.287C1003.8 243.959 1033.53 273.687 1070.2 273.687Z" stroke="#C6C6C6" stroke-opacity="0.2" stroke-width="2" stroke-miterlimit="10"/>
<path d="M1070.2 259.837C1099.22 259.837 1122.75 236.309 1122.75 207.287C1122.75 178.264 1099.22 154.737 1070.2 154.737C1041.18 154.737 1017.65 178.264 1017.65 207.287C1017.65 236.309 1041.18 259.837 1070.2 259.837Z" stroke="#C6C6C6" stroke-opacity="0.2" stroke-width="2" stroke-miterlimit="10"/>
<path d="M24.41 36.33C26.2933 36.33 27.82 34.8033 27.82 32.92C27.82 31.0367 26.2933 29.51 24.41 29.51C22.5267 29.51 21 31.0367 21 32.92C21 34.8033 22.5267 36.33 24.41 36.33Z" fill="#C6C6C6" fill-opacity="0.2"/>
<path d="M53.7201 36.33C55.6034 36.33 57.1301 34.8033 57.1301 32.92C57.1301 31.0367 55.6034 29.51 53.7201 29.51C51.8368 29.51 50.3101 31.0367 50.3101 32.92C50.3101 34.8033 51.8368 36.33 53.7201 36.33Z" fill="#C6C6C6" fill-opacity="0.2"/>
<path d="M86.45 32.92C86.45 34.8 84.92 36.33 83.04 36.33C81.16 36.33 79.63 34.8 79.63 32.92C79.63 31.04 81.16 29.51 83.04 29.51C84.92 29.51 86.45 31.04 86.45 32.92Z" fill="#C6C6C6" fill-opacity="0.2"/>
<path d="M112.35 36.33C114.233 36.33 115.76 34.8033 115.76 32.92C115.76 31.0367 114.233 29.51 112.35 29.51C110.467 29.51 108.94 31.0367 108.94 32.92C108.94 34.8033 110.467 36.33 112.35 36.33Z" fill="#C6C6C6" fill-opacity="0.2"/>
<path d="M24.41 64.13C26.2933 64.13 27.82 62.6033 27.82 60.72C27.82 58.8367 26.2933 57.31 24.41 57.31C22.5267 57.31 21 58.8367 21 60.72C21 62.6033 22.5267 64.13 24.41 64.13Z" fill="#C6C6C6" fill-opacity="0.2"/>
<path d="M53.7201 64.13C55.6034 64.13 57.1301 62.6033 57.1301 60.72C57.1301 58.8367 55.6034 57.31 53.7201 57.31C51.8368 57.31 50.3101 58.8367 50.3101 60.72C50.3101 62.6033 51.8368 64.13 53.7201 64.13Z" fill="#C6C6C6" fill-opacity="0.2"/>
<path d="M86.45 60.72C86.45 62.6 84.92 64.13 83.04 64.13C81.16 64.13 79.63 62.6 79.63 60.72C79.63 58.84 81.16 57.31 83.04 57.31C84.92 57.31 86.45 58.84 86.45 60.72Z" fill="#C6C6C6" fill-opacity="0.2"/>
<path d="M112.35 64.13C114.233 64.13 115.76 62.6033 115.76 60.72C115.76 58.8367 114.233 57.31 112.35 57.31C110.467 57.31 108.94 58.8367 108.94 60.72C108.94 62.6033 110.467 64.13 112.35 64.13Z" fill="#C6C6C6" fill-opacity="0.2"/>
<path d="M132.03 11.6201L202.2 11.6201V-58.5499L132.03 -58.5499V11.6201Z" stroke="#C6C6C6" stroke-opacity="0.2" stroke-width="1.3" stroke-miterlimit="10"/>
<path d="M202.2 11.63L175.72 38.11H104.91V-32.34L131.57 -59" stroke="#C6C6C6" stroke-opacity="0.2" stroke-width="1.3" stroke-miterlimit="10"/>
<path d="M132.03 11.6301L105.23 38.4301" stroke="#C6C6C6" stroke-opacity="0.2" stroke-width="1.3" stroke-miterlimit="10"/>
<path d="M774.09 117.18C772.94 117.18 772 116.24 772 115.09C772 113.94 772.94 113 774.09 113C775.24 113 776.18 113.94 776.18 115.09C776.18 116.24 775.24 117.18 774.09 117.18Z" fill="#C6C6C6" fill-opacity="0.2"/>
<path d="M774.09 135.13C772.94 135.13 772 134.19 772 133.04C772 131.89 772.94 130.95 774.09 130.95C775.24 130.95 776.18 131.89 776.18 133.04C776.18 134.19 775.24 135.13 774.09 135.13Z" fill="#C6C6C6" fill-opacity="0.2"/>
<path d="M774.09 153.09C772.94 153.09 772 152.15 772 151C772 149.85 772.94 148.91 774.09 148.91C775.24 148.91 776.18 149.85 776.18 151C776.18 152.15 775.24 153.09 774.09 153.09Z" fill="#C6C6C6" fill-opacity="0.2"/>
<path d="M774.09 171.05C772.94 171.05 772 170.11 772 168.96C772 167.81 772.94 166.87 774.09 166.87C775.24 166.87 776.18 167.81 776.18 168.96C776.18 170.11 775.24 171.05 774.09 171.05Z" fill="#C6C6C6" fill-opacity="0.2"/>
<path d="M774.09 188.51C772.94 188.51 772 187.57 772 186.42C772 185.27 772.94 184.33 774.09 184.33C775.24 184.33 776.18 185.27 776.18 186.42C776.18 187.57 775.24 188.51 774.09 188.51Z" fill="#C6C6C6" fill-opacity="0.2"/>
<path d="M774.09 206.47C772.94 206.47 772 205.53 772 204.38C772 203.23 772.94 202.29 774.09 202.29C775.24 202.29 776.18 203.23 776.18 204.38C776.18 205.53 775.24 206.47 774.09 206.47Z" fill="#C6C6C6" fill-opacity="0.2"/>
<path d="M753.09 117.18C751.94 117.18 751 116.24 751 115.09C751 113.94 751.94 113 753.09 113C754.24 113 755.18 113.94 755.18 115.09C755.18 116.24 754.24 117.18 753.09 117.18Z" fill="#C6C6C6" fill-opacity="0.2"/>
<path d="M753.09 135.13C751.94 135.13 751 134.19 751 133.04C751 131.89 751.94 130.95 753.09 130.95C754.24 130.95 755.18 131.89 755.18 133.04C755.18 134.19 754.24 135.13 753.09 135.13Z" fill="#C6C6C6" fill-opacity="0.2"/>
<path d="M753.09 153.09C751.94 153.09 751 152.15 751 151C751 149.85 751.94 148.91 753.09 148.91C754.24 148.91 755.18 149.85 755.18 151C755.18 152.15 754.24 153.09 753.09 153.09Z" fill="#C6C6C6" fill-opacity="0.2"/>
<path d="M753.09 171.05C751.94 171.05 751 170.11 751 168.96C751 167.81 751.94 166.87 753.09 166.87C754.24 166.87 755.18 167.81 755.18 168.96C755.18 170.11 754.24 171.05 753.09 171.05Z" fill="#C6C6C6" fill-opacity="0.2"/>
<path d="M753.09 188.51C751.94 188.51 751 187.57 751 186.42C751 185.27 751.94 184.33 753.09 184.33C754.24 184.33 755.18 185.27 755.18 186.42C755.18 187.57 754.24 188.51 753.09 188.51Z" fill="#C6C6C6" fill-opacity="0.2"/>
<path d="M753.09 206.47C751.94 206.47 751 205.53 751 204.38C751 203.23 751.94 202.29 753.09 202.29C754.24 202.29 755.18 203.23 755.18 204.38C755.18 205.53 754.24 206.47 753.09 206.47Z" fill="#C6C6C6" fill-opacity="0.2"/>
<path d="M1111.41 34.81L1104.1 42.12L1111.54 49.56L1104.56 56.54L1097.12 49.1L1089.81 56.41L1083.17 49.77L1090.48 42.46L1083 34.98L1089.98 28L1097.46 35.48L1104.77 28.17L1111.41 34.81Z" fill="#C6C6C6" fill-opacity="0.2"/>
<rect x="501" y="64.87" width="43.4401" height="43.4401" rx="13.051" fill="#262626"/>
<path d="M522.72 100.185C520.84 100.185 519.072 99.8276 517.418 99.1134C515.764 98.3992 514.325 97.4308 513.102 96.2082C511.878 94.9847 510.91 93.5459 510.197 91.8918C509.483 90.2378 509.126 88.4705 509.125 86.5899C509.125 84.7093 509.482 82.942 510.197 81.2879C510.911 79.6339 511.879 78.1951 513.102 76.9716C514.325 75.7481 515.764 74.7797 517.418 74.0664C519.072 73.3531 520.84 72.996 522.72 72.9951C523.808 72.9951 524.867 73.1197 525.899 73.369C526.93 73.6182 527.921 73.9807 528.872 74.4566C529.212 74.6378 529.433 74.9097 529.535 75.2722C529.638 75.6348 529.575 75.9746 529.348 76.2918C529.121 76.6091 528.821 76.813 528.446 76.9036C528.072 76.9942 527.704 76.9489 527.342 76.7677C526.617 76.4278 525.864 76.1672 525.082 75.986C524.299 75.8047 523.512 75.7141 522.72 75.7141C519.707 75.7141 517.14 76.7736 515.021 78.8925C512.902 81.0115 511.843 83.5773 511.844 86.5899C511.844 89.6034 512.904 92.1696 515.023 94.2886C517.142 96.4076 519.708 97.4666 522.72 97.4657C525.734 97.4657 528.3 96.4067 530.419 94.2886C532.538 92.1705 533.597 89.6043 533.596 86.5899C533.596 86.4086 533.591 86.2332 533.58 86.0638C533.569 85.8943 533.552 85.7185 533.528 85.5363C533.483 85.1511 533.557 84.7831 533.75 84.4324C533.943 84.0817 534.231 83.8492 534.616 83.735C534.978 83.6217 535.318 83.6557 535.635 83.8369C535.952 84.0182 536.134 84.2901 536.179 84.6526C536.224 84.9698 536.258 85.2871 536.281 85.6043C536.304 85.9215 536.315 86.25 536.315 86.5899C536.315 88.4705 535.958 90.2378 535.244 91.8918C534.529 93.5459 533.561 94.9847 532.338 96.2082C531.115 97.4317 529.676 98.4006 528.022 99.1147C526.368 99.8289 524.601 100.186 522.72 100.185Z" fill="white"/>
<path d="M533.46 76.3604L520.817 89.0375L517.894 86.1146C517.645 85.8654 517.327 85.7408 516.942 85.7408C516.557 85.7408 516.24 85.8654 515.991 86.1146C515.741 86.3639 515.617 86.6811 515.617 87.0663C515.617 87.4515 515.741 87.7687 515.991 88.0179L519.865 91.8924C520.137 92.1643 520.454 92.3003 520.817 92.3003C521.179 92.3003 521.497 92.1643 521.768 91.8924L535.363 78.2637C535.612 78.0144 535.737 77.6972 535.737 77.312C535.737 76.9268 535.612 76.6096 535.363 76.3604C535.092 76.0876 534.77 75.9571 534.395 75.9689C534.021 75.9807 533.709 76.1112 533.46 76.3604Z" fill="#FFCB12"/>
<path d="M556.012 100.09L563.912 75.032H570.055L577.955 100.09H573.64L566.47 77.6074H567.41L560.328 100.09H556.012ZM560.415 94.6607V90.7454H573.57V94.6607H560.415ZM581.101 100.09V75.032H591.455C591.699 75.032 592.012 75.0436 592.395 75.0668C592.778 75.0784 593.131 75.1132 593.456 75.1712C594.906 75.3916 596.101 75.8731 597.041 76.6155C597.992 77.358 598.694 78.2976 599.146 79.4345C599.61 80.5598 599.842 81.8127 599.842 83.1932C599.842 84.5621 599.61 85.815 599.146 86.9519C598.682 88.0772 597.975 89.011 597.023 89.7535C596.084 90.496 594.895 90.9774 593.456 91.1978C593.131 91.2442 592.772 91.279 592.377 91.3022C591.994 91.3254 591.687 91.337 591.455 91.337H585.295V100.09H581.101ZM585.295 87.4217H591.281C591.513 87.4217 591.774 87.4101 592.064 87.3869C592.354 87.3637 592.621 87.3173 592.865 87.2477C593.561 87.0737 594.106 86.7663 594.5 86.3254C594.906 85.8846 595.19 85.3858 595.353 84.8289C595.527 84.2721 595.614 83.7268 595.614 83.1932C595.614 82.6596 595.527 82.1143 595.353 81.5575C595.19 80.989 594.906 80.4844 594.5 80.0436C594.106 79.6027 593.561 79.2953 592.865 79.1213C592.621 79.0517 592.354 79.0111 592.064 78.9995C591.774 78.9763 591.513 78.9647 591.281 78.9647H585.295V87.4217ZM603.329 100.09V75.032H607.105L615.771 92.7813L624.436 75.032H628.213V100.09H624.297V84.0285L616.606 100.09H614.935L607.261 84.0285V100.09H603.329ZM642.376 100.612C640.543 100.612 638.89 100.293 637.417 99.6548C635.955 99.0168 634.749 98.1061 633.797 96.9228C632.858 95.7279 632.26 94.3126 632.005 92.6769L636.355 92.0157C636.726 93.5006 637.486 94.6491 638.635 95.4611C639.795 96.2732 641.129 96.6792 642.637 96.6792C643.53 96.6792 644.371 96.54 645.16 96.2616C645.949 95.9832 646.587 95.5771 647.074 95.0435C647.573 94.5099 647.823 93.8544 647.823 93.0771C647.823 92.7291 647.765 92.4101 647.649 92.1201C647.533 91.8185 647.359 91.5516 647.127 91.3196C646.906 91.0876 646.616 90.8788 646.257 90.6932C645.909 90.496 645.503 90.3277 645.039 90.1885L638.565 88.2744C638.008 88.112 637.405 87.8974 636.755 87.6305C636.117 87.3521 635.508 86.9751 634.928 86.4995C634.36 86.0122 633.89 85.3974 633.519 84.6549C633.159 83.9009 632.979 82.9728 632.979 81.8707C632.979 80.2582 633.385 78.9067 634.198 77.8162C635.021 76.7141 636.123 75.8905 637.504 75.3452C638.896 74.8 640.439 74.5332 642.132 74.5448C643.849 74.5564 645.381 74.8522 646.726 75.4322C648.072 76.0007 649.197 76.8301 650.102 77.9206C651.007 79.0111 651.645 80.3278 652.016 81.8707L647.51 82.6538C647.324 81.7721 646.964 81.0238 646.431 80.409C645.909 79.7826 645.265 79.3069 644.499 78.9821C643.745 78.6573 642.939 78.4833 642.08 78.4601C641.245 78.4485 640.468 78.5761 639.749 78.8429C639.041 79.0981 638.467 79.4693 638.026 79.9566C637.597 80.4438 637.382 81.0122 637.382 81.6619C637.382 82.2767 637.568 82.7814 637.939 83.1758C638.31 83.5586 638.768 83.8661 639.313 84.0981C639.87 84.3185 640.433 84.5041 641.001 84.6549L645.491 85.9078C646.106 86.0702 646.796 86.2906 647.562 86.5691C648.327 86.8475 649.064 87.2361 649.772 87.7349C650.479 88.2338 651.059 88.8892 651.512 89.7013C651.976 90.5134 652.208 91.5458 652.208 92.7987C652.208 94.098 651.935 95.2407 651.39 96.2268C650.856 97.2013 650.131 98.0133 649.215 98.663C648.298 99.3126 647.248 99.7999 646.065 100.125C644.894 100.45 643.664 100.612 642.376 100.612Z" fill="black"/>
</g>
<defs>
<clipPath id="clip0_2045_547">
<rect width="1156" height="212" rx="8" fill="white"/>
</clipPath>
</defs>
</svg>
