<svg width="32" height="32" viewBox="0 0 32 32" fill="none" xmlns="http://www.w3.org/2000/svg">
<g id="Frame">
<g clip-path="url(#clip0_2038_101)">
<path id="Vector" d="M11.148 1.0525C7.95068 2.16167 5.19333 4.26691 3.28095 7.059C1.36857 9.85109 0.401953 13.1829 0.52308 16.5649C0.644208 19.947 1.8467 23.201 3.95392 25.8492C6.06114 28.4973 8.96202 30.3999 12.2305 31.2775C14.8803 31.9612 17.6565 31.9913 20.3205 31.365C22.7338 30.8229 24.9649 29.6634 26.7955 28C28.7007 26.2159 30.0836 23.9462 30.7955 21.435C31.569 18.7041 31.7067 15.8323 31.198 13.04H16.318V19.2125H24.9355C24.7632 20.197 24.3942 21.1366 23.8504 21.9751C23.3065 22.8136 22.5991 23.5338 21.7705 24.0925C20.7183 24.7888 19.532 25.2572 18.288 25.4675C17.0403 25.6995 15.7606 25.6995 14.513 25.4675C13.2484 25.2063 12.0521 24.6844 11.0005 23.935C9.31085 22.739 8.04217 21.0398 7.37548 19.08C6.6977 17.0835 6.6977 14.919 7.37548 12.9225C7.85004 11.523 8.63456 10.2488 9.67048 9.195C10.856 7.96686 12.3568 7.08899 14.0084 6.65769C15.6599 6.22638 17.3984 6.25832 19.033 6.75C20.31 7.1418 21.4777 7.82669 22.443 8.75C23.4146 7.78333 24.3846 6.81416 25.353 5.8425C25.853 5.32 26.398 4.8225 26.8905 4.2875C25.4168 2.91629 23.6871 1.84926 21.8005 1.1475C18.3647 -0.10003 14.6054 -0.133556 11.148 1.0525Z" fill="white"/>
<path id="Vector_2" d="M11.1474 1.05237C14.6046 -0.13449 18.3639 -0.101847 21.7999 1.14487C23.6869 1.8514 25.4158 2.92357 26.8874 4.29987C26.3874 4.83487 25.8599 5.33487 25.3499 5.85487C24.3799 6.8232 23.4108 7.7882 22.4424 8.74987C21.4772 7.82656 20.3094 7.14168 19.0324 6.74987C17.3984 6.25647 15.66 6.22269 14.008 6.65222C12.356 7.08176 10.8542 7.95802 9.66744 9.18487C8.63153 10.2387 7.84701 11.5129 7.37244 12.9124L2.18994 8.89987C4.04496 5.22127 7.25681 2.40743 11.1474 1.05237Z" fill="#E33629"/>
<path id="Vector_3" d="M0.81512 12.8747C1.09347 11.4941 1.55593 10.1571 2.19012 8.89966L7.37262 12.9222C6.69484 14.9187 6.69484 17.0831 7.37262 19.0797C5.64595 20.413 3.91845 21.753 2.19012 23.0997C0.602996 19.9404 0.118951 16.3409 0.81512 12.8747Z" fill="#FFB546"/>
<path id="Vector_4" d="M16.3175 13.0376H31.1975C31.7062 15.8299 31.5686 18.7017 30.795 21.4326C30.0831 23.9438 28.7002 26.2135 26.795 27.9976C25.1225 26.6926 23.4425 25.3976 21.77 24.0926C22.5992 23.5333 23.3069 22.8123 23.8508 21.9729C24.3946 21.1335 24.7634 20.193 24.935 19.2076H16.3175C16.315 17.1526 16.3175 15.0951 16.3175 13.0376Z" fill="#587DBD"/>
<path id="Vector_5" d="M2.1875 23.1C3.91583 21.7666 5.64333 20.4266 7.37 19.08C8.03802 21.0405 9.30851 22.7397 11 23.935C12.0549 24.6809 13.2537 25.1986 14.52 25.455C15.7676 25.687 17.0474 25.687 18.295 25.455C19.5391 25.2447 20.7253 24.7763 21.7775 24.08C23.45 25.385 25.13 26.68 26.8025 27.985C24.9722 29.6493 22.7411 30.8097 20.3275 31.3525C17.6635 31.9787 14.8873 31.9487 12.2375 31.265C10.1418 30.7054 8.18419 29.7189 6.4875 28.3675C4.69182 26.9415 3.22509 25.1448 2.1875 23.1Z" fill="#319F43"/>
</g>
</g>
<defs>
<clipPath id="clip0_2038_101">
<rect width="32" height="32" rx="15" fill="white"/>
</clipPath>
</defs>
</svg>
